<svg xmlns="http://www.w3.org/2000/svg" version="1.1" xmlns:xlink="http://www.w3.org/1999/xlink" xmlns:svgjs="http://svgjs.dev/svgjs" width="1000" height="623" viewBox="0 0 1000 623"><g transform="matrix(1,0,0,1,-0.6060606060606233,0.2526924875036798)"><svg viewBox="0 0 396 247" data-background-color="#ffffff" preserveAspectRatio="xMidYMid meet" height="623" width="1000" xmlns="http://www.w3.org/2000/svg" xmlns:xlink="http://www.w3.org/1999/xlink"><g id="tight-bounds" transform="matrix(1,0,0,1,0.2400000000000091,-0.09997365579206985)"><svg viewBox="0 0 395.52 247.2" height="247.2" width="395.52"><g><svg viewBox="0 0 395.52 247.2" height="247.2" width="395.52"><g transform="matrix(1,0,0,1,67.81836513388734,0)"><svg viewBox="0 0 259.8832697322253 247.2" height="247.2" width="259.8832697322253"><g><svg viewBox="0 0 259.8832697322253 247.2" height="247.2" width="259.8832697322253"><g><svg viewBox="0 0 259.8832697322253 247.2" height="247.2" width="259.8832697322253"><g><svg viewBox="0 0 259.8832697322253 247.2" height="247.2" width="259.8832697322253"><g><svg viewBox="0 0 259.8832697322253 247.2" height="247.2" width="259.8832697322253"><path d="M259.275 53.02C258.053 27.36 254.571 20.227 254.571 20.227 243.881-6.202 230.539-0.506 218.553 3.292 197.392 3.446 176.317 9.091 155.205 12.119 110.891 12.581 66.199 4.986 22.105 23.717 17.964 29.464-4.297 24.846 0.737 56.304 2.056 69.39 6.87 83.913 6.723 95.922 7.383 98.026 8.299 93.202 8.69 96.23 10.059 104.39 12.295 100.541 14.127 105.365 11.574 118.246 13.406 128.971 15.154 140.21 12.075 143.135 8.128 141.749 6.357 151.449 6.174 158.479 5.184 157.145 4.097 156.837 3.302 156.632 1.702 157.402 1.971 159.608 2.887 167.152-1.047 171.514 1.421 178.904-0.277 186.91 2.594 193.838 2.203 202.511 2.154 204.255 2.423 205.744 2.85 206.154 4.744 208.361 1.983 212.672 2.276 217.342 21.702 249.262 42.778 227.195 62.68 241.872 67.848 231.608 63.963 245.516 66.028 243.36 67.641 240.846 68.814 251.263 70.634 245.362 70.915 243.668 70.487 239.665 71.489 240.435 72.015 240.846 72.479 240.743 72.552 238.382 72.662 234.841 71.697 237.048 71.44 235.201 74.214 225.861 73.53 248.081 76.132 247.158 76.01 244.438 75.252 240.538 76.804 241.051 78.343 237.151 78.392 233.918 79.761 242.693 79.809 244.592 80.054 245.926 80.445 246.85 84.721 237.305 88.973 250.237 93.457 245.926 96.206 241.205 98.845 248.492 101.63 246.696 102.608 245.259 103.597 242.693 104.538 247.004 116.059 247.928 128.338 244.079 139.261 247.158 168.449 241.41 199.64 249.518 230.417 241.923 237.674 238.998 245.212 234.841 252.286 231.506 252.286 231.506 258.016 222.371 258.016 181.316S259.238 145.393 259.421 112.703C259.605 80.013 260.46 78.679 259.238 53.02Z" opacity="1" fill="#ee3e38" data-fill-palette-color="tertiary"></path><g transform="matrix(1,0,0,1,55.76832,26.230666666666668)"><svg width="148.3466297322253" viewBox="3.5 -35.4 27.5 36.1" height="194.73866666666666" data-palette-color="#ffffff"><path d="M6 0.7Q4.75 0.7 3.5-0.1L3.5-0.1Q4.4-2.5 4.4-6.8L4.4-6.8 4.35-27.95Q4.35-32.05 4-34.65L4-34.65Q4.3-35 5.1-35.2 5.9-35.4 6.75-35.4L6.75-35.4Q7.9-35.4 8.25-35.05L8.25-35.05Q10.45-31.9 14.8-26.1L14.8-26.1Q19.75-19.5 22.9-15 26.05-10.5 27.35-7.85L27.35-7.85 25.85-30.8Q25.8-31.05 25.8-31.55L25.8-31.55Q25.8-33.15 26.5-34.15 27.2-35.15 28.5-35.3L28.5-35.3Q29.95-35.4 31-34.75L31-34.75Q30.5-33 30.5-29.15L30.5-29.15 30.45-6.65Q30.45-2.3 30.75-0.1L30.75-0.1Q30.45 0.25 29.7 0.45 28.95 0.65 28.2 0.65L28.2 0.65Q27.25 0.65 26.7 0.35L26.7 0.35Q13.85-14.75 7.75-26L7.75-26 9-2.8Q9.1-1.3 8.15-0.3 7.2 0.7 6 0.7L6 0.7Z" opacity="1" transform="matrix(1,0,0,1,0,0)" fill="#ffffff" class="undefined-text-0" data-fill-palette-color="quaternary" id="text-0"></path></svg></g></svg></g></svg></g></svg></g><g></g></svg></g></svg></g></svg></g><defs></defs></svg><rect width="395.52" height="247.2" fill="none" stroke="none" visibility="hidden"></rect></g></svg></g></svg>